<?xml version="1.0" standalone="no"?>
<!DOCTYPE svg PUBLIC "-//W3C//DTD SVG 20010904//EN"
 "http://www.w3.org/TR/2001/REC-SVG-20010904/DTD/svg10.dtd">
<svg version="1.0" xmlns="http://www.w3.org/2000/svg"
 width="300.000000pt" height="300.000000pt" viewBox="0 0 300.000000 300.000000"
 preserveAspectRatio="xMidYMid meet">
<metadata>
Created by potrace 1.10, written by Peter Selinger 2001-2011
</metadata>
<g transform="translate(0.000000,300.000000) scale(0.100000,-0.100000)"
fill="#000000" stroke="none">
<path d="M2140 2585 c-211 -35 -258 -52 -322 -113 l-38 -36 -37 36 c-49 46
-73 58 -118 58 -60 0 -288 -41 -312 -56 -15 -9 -25 -32 -34 -71 -7 -32 -15
-61 -19 -66 -3 -4 -28 20 -55 53 -26 33 -55 62 -64 64 -28 9 -95 -12 -115 -36
-14 -18 -17 -33 -13 -70 4 -27 3 -48 -1 -47 -4 0 -26 27 -49 60 -40 55 -46 59
-82 59 -54 0 -80 -25 -95 -90 -7 -29 -17 -55 -22 -57 -6 -2 -30 12 -55 31 -79
60 -146 68 -231 25 -37 -19 -45 -28 -95 -104 -47 -73 -53 -105 -53 -302 0
-197 5 -223 55 -289 31 -40 131 -92 196 -100 l49 -7 0 -69 c0 -44 4 -67 10
-63 6 4 10 -27 10 -84 0 -54 -4 -91 -10 -91 -6 0 -10 -35 -10 -84 0 -48 -5
-88 -10 -91 -6 -4 -36 -9 -68 -11 -67 -6 -92 -25 -92 -68 l0 -31 -26 33 c-21
26 -32 32 -65 32 -45 0 -79 -27 -79 -62 0 -13 -7 -43 -16 -68 -13 -37 -14 -78
-8 -264 l7 -219 41 -43 41 -42 60 12 c53 11 60 15 57 34 -4 27 9 28 33 2 10
-11 28 -20 41 -20 25 0 64 43 64 71 0 24 2 24 46 -6 67 -45 196 -24 211 36 7
24 14 24 47 -2 22 -17 34 -19 81 -14 58 8 95 37 95 76 0 26 15 24 63 -11 l42
-29 255 44 c140 25 265 49 277 54 12 6 29 22 39 36 9 14 25 25 35 25 10 0 24
9 31 19 12 19 14 19 73 -15 83 -46 114 -45 166 6 46 44 52 46 89 25 38 -22
128 -19 170 6 19 11 40 27 47 36 10 13 15 12 38 -3 29 -19 65 -16 253 17 l62
11 0 87 c0 110 -14 136 -71 128 -54 -7 -53 18 1 27 l40 6 0 74 c0 80 -22 126
-61 126 -10 0 -19 6 -19 14 0 10 17 17 56 22 50 6 55 8 50 28 -3 11 -6 54 -6
93 0 108 -1 109 -220 72 -215 -36 -220 -38 -220 -84 0 -19 -2 -35 -5 -35 -12
0 -54 55 -55 70 0 18 248 256 305 292 53 33 113 101 120 135 4 16 11 35 16 43
26 41 42 91 47 147 l5 61 54 28 c30 15 83 35 116 45 66 19 45 24 -38 9 -27 -4
-69 -6 -92 -3 l-41 6 -4 130 -3 130 -39 31 c-62 49 -109 99 -135 143 -31 54
-84 83 -147 82 -27 -1 -137 -16 -244 -34z m315 -21 c14 -9 41 -43 61 -75 19
-32 49 -68 67 -80 18 -12 44 -34 60 -47 l27 -26 0 -211 c0 -208 0 -212 -26
-264 -31 -61 -77 -95 -149 -111 -47 -10 -64 -24 -260 -215 -115 -112 -211
-205 -212 -205 -2 0 -3 64 -3 143 l0 143 -87 -17 c-49 -9 -105 -20 -125 -23
-41 -7 -52 -26 -15 -25 12 0 56 6 97 13 70 13 100 12 100 -3 0 -3 -13 -12 -28
-18 -28 -13 -130 -112 -194 -188 -18 -22 -39 -46 -45 -53 -7 -7 -13 -22 -13
-33 0 -17 9 -13 55 26 30 26 55 53 55 59 0 12 157 173 162 165 2 -2 2 -52 0
-111 -3 -93 -6 -108 -20 -108 -9 0 -32 -9 -51 -21 -28 -17 -39 -19 -58 -10
-13 6 -34 11 -46 11 -32 0 -88 -37 -81 -54 9 -23 -15 -29 -42 -11 -25 16 -25
17 -7 37 13 15 19 40 22 100 l3 80 -49 47 c-27 26 -64 54 -81 62 -17 7 -37 26
-43 41 -12 29 -8 132 5 145 15 16 36 -32 36 -83 0 -54 8 -66 49 -79 33 -10 68
12 81 49 15 48 8 167 -13 199 -24 37 -60 59 -100 60 l-34 1 4 90 c3 50 6 96 8
102 2 6 24 16 48 23 25 6 59 23 77 37 17 15 34 24 37 20 3 -3 8 -131 10 -283
2 -154 8 -282 14 -288 5 -5 9 134 9 368 0 418 -1 413 66 487 58 64 100 80 304
116 213 37 290 41 325 18z m-783 -85 c32 -17 48 -71 48 -164 0 -129 -34 -186
-119 -201 -75 -12 -71 -5 -71 -118 l0 -103 -35 -10 -35 -11 0 298 0 299 38 6
c20 4 42 8 47 10 24 8 108 4 127 -6z m-272 -319 c0 -289 -1 -300 -19 -300 -11
0 -27 -3 -36 -6 -16 -6 -17 9 -13 185 1 105 0 184 -3 174 -4 -10 -17 -76 -29
-148 -12 -71 -25 -133 -29 -136 -3 -4 -23 -9 -43 -12 -36 -6 -38 -5 -47 31
-11 42 -38 174 -44 212 -3 14 -5 -57 -6 -156 -1 -179 -1 -182 -23 -188 -50
-13 -48 -24 -48 293 l0 299 33 5 c17 2 33 3 35 2 6 -5 92 -345 92 -365 0 -11
5 -20 10 -20 6 0 10 10 10 23 0 12 21 106 46 209 48 197 45 190 102 197 9 1
12 -65 12 -299z m-430 -68 c39 -156 70 -285 68 -286 -1 -2 -20 -6 -40 -10
l-36 -7 -17 76 c-16 70 -19 76 -39 71 -11 -2 -38 -8 -58 -11 -39 -7 -39 -7
-63 -137 -4 -21 -13 -38 -20 -38 -7 0 -27 -3 -45 -7 -30 -5 -33 -4 -26 13 4
10 34 134 66 274 84 365 79 348 104 352 11 2 24 2 27 -1 4 -4 39 -133 79 -289z
m283 165 c-3 -18 -10 -43 -16 -57 l-10 -25 -9 30 c-5 17 -10 35 -11 40 -2 6
-5 15 -8 20 -3 6 -6 25 -8 44 l-3 33 36 -27 c31 -23 34 -31 29 -58z m-624 49
c35 -19 51 -55 51 -115 0 -42 -3 -49 -22 -55 -51 -13 -57 -9 -60 47 -3 50 -4
52 -33 55 -16 2 -39 -3 -49 -11 -18 -13 -19 -27 -17 -228 1 -117 5 -217 7
-221 10 -15 54 -8 74 12 11 11 20 33 20 50 0 32 3 35 59 44 l34 6 -7 -46 c-12
-94 -66 -144 -156 -146 -54 -2 -81 15 -106 64 -17 33 -20 381 -4 440 25 87
134 142 209 104z m386 -26 c13 0 15 -20 14 -137 -1 -136 -1 -137 -16 -93 -18
56 -62 230 -63 249 0 10 5 10 25 -3 13 -9 31 -16 40 -16z m-245 -72 c0 -11 -6
-46 -14 -77 -7 -31 -21 -93 -31 -137 l-18 -82 -47 -6 c-59 -8 -84 -32 -89 -88
-1 -5 -12 -8 -24 -8 l-24 0 -1 173 c-1 168 8 232 31 224 6 -2 15 -19 20 -38
12 -50 39 -70 80 -58 43 12 57 34 57 90 l0 48 30 -10 c20 -7 30 -18 30 -31z
m-364 -466 c11 -18 38 -42 63 -54 39 -19 49 -20 93 -9 28 6 63 20 78 31 15 11
33 20 38 20 17 0 25 -20 13 -34 -6 -7 -12 -45 -13 -85 -1 -40 -5 -74 -9 -76
-3 -3 -17 4 -30 14 -13 10 -41 21 -61 25 -89 16 -159 65 -189 131 -16 34 -18
64 -17 205 l1 165 7 -150 c5 -122 10 -156 26 -183z m512 124 c7 -18 12 -38 12
-46 0 -24 32 -50 61 -50 27 0 27 -1 18 -30 -6 -16 -13 -30 -15 -30 -2 0 -21 9
-43 21 -36 19 -46 19 -96 9 -63 -13 -71 -11 -57 17 6 10 15 43 22 74 8 42 16
59 33 66 32 15 52 5 65 -31z m300 27 c16 3 41 9 55 12 20 6 26 2 35 -22 5 -15
13 -36 17 -45 5 -13 2 -18 -9 -18 -9 0 -28 -7 -41 -16 l-25 -16 0 -240 c0
-190 -3 -245 -15 -267 -14 -29 -61 -49 -76 -34 -4 4 -9 119 -11 254 -3 225 -5
249 -22 268 -17 19 -17 21 -2 27 8 3 21 25 27 48 20 74 19 72 29 57 5 -9 18
-12 38 -8z m232 -28 c11 -13 8 -21 -20 -50 -26 -27 -37 -32 -47 -24 -19 17
-16 29 15 60 32 33 35 34 52 14z m198 -50 c14 -18 21 -48 27 -116 3 -50 4 -93
2 -96 -3 -2 -22 -8 -41 -13 l-36 -8 0 78 c0 90 -14 116 -59 105 -46 -12 -51
-22 -51 -109 0 -95 8 -112 77 -151 27 -15 60 -39 76 -53 24 -23 27 -32 27 -94
0 -61 -3 -71 -31 -102 -54 -62 -152 -75 -200 -27 -35 35 -42 101 -11 101 9 0
27 3 40 6 19 6 22 3 22 -24 0 -21 6 -32 19 -37 25 -8 68 10 80 34 23 41 13 60
-56 109 -37 26 -80 59 -96 75 l-29 27 4 119 c3 116 4 121 31 149 33 35 74 50
139 51 38 1 50 -3 66 -24z m-288 -273 c0 -247 -1 -260 -22 -302 -29 -57 -72
-85 -149 -99 -78 -13 -118 1 -142 52 -15 30 -17 72 -17 290 l0 255 28 6 c15 4
35 9 45 12 16 5 17 -12 17 -259 0 -214 3 -267 14 -276 19 -16 94 -3 118 21 22
22 20 -4 22 298 l1 245 30 6 c17 4 36 7 43 8 9 1 12 -57 12 -257z m1213 183
c-3 -9 -32 -34 -63 -55 -75 -51 -291 -259 -315 -304 -11 -19 -29 -37 -42 -41
-19 -4 -31 -17 -59 -63 -1 -2 -18 5 -38 14 -35 17 -49 44 -22 44 7 0 31 16 52
36 50 46 198 188 290 277 53 51 86 74 125 88 67 23 80 23 72 4z m-1618 -30
c24 -23 25 -29 25 -155 0 -180 -20 -213 -141 -227 l-49 -6 0 -118 c0 -117 0
-119 -22 -119 -13 0 -33 -3 -46 -6 l-22 -6 2 313 3 313 90 17 c123 23 132 23
160 -6z m568 -308 c36 -27 48 -59 26 -73 -6 -3 -23 6 -38 20 -29 28 -54 32
-95 16 l-26 -10 0 76 0 76 48 -39 c26 -21 64 -51 85 -66z m1155 -39 l-3 -33
-90 -14 -90 -14 0 -93 c0 -79 2 -93 15 -89 14 4 130 25 137 25 3 0 3 -15 1
-32 -3 -30 -6 -33 -48 -40 -25 -4 -59 -10 -76 -13 l-30 -5 3 -88 c3 -99 -11
-91 116 -67 l67 13 0 -33 0 -32 -92 -17 c-51 -9 -108 -19 -125 -22 l-33 -6 0
275 0 275 73 12 c39 7 88 16 107 20 66 15 72 13 68 -22z m-1678 -33 c0 -42 -2
-45 -22 -41 -32 7 -130 -43 -146 -74 -11 -23 -12 -20 -10 29 3 51 5 55 30 58
39 5 90 28 113 52 30 29 35 26 35 -24z m1380 -215 c0 -247 -4 -274 -51 -317
-13 -11 -42 -26 -64 -32 -32 -9 -46 -8 -75 7 -57 28 -60 41 -60 305 l0 237 33
0 32 0 3 -238 c2 -130 7 -241 12 -246 5 -5 25 -5 44 -2 63 12 68 35 64 283 -4
210 -4 215 16 223 47 19 46 23 46 -220z m298 158 c-2 -13 -11 -24 -23 -26 -25
-5 -65 -41 -65 -58 0 -7 -10 -19 -22 -25 -30 -16 -44 6 -40 64 4 45 5 46 45
56 23 5 57 9 75 10 29 1 33 -2 30 -21z m-605 -29 c16 -20 18 -42 16 -236 -1
-184 1 -217 15 -239 16 -24 16 -26 -6 -44 -30 -25 -45 -25 -53 1 -5 15 -12 18
-23 13 -10 -4 -37 -9 -62 -12 -39 -3 -49 0 -73 24 -26 26 -27 29 -29 158 -3
298 1 319 74 355 47 23 113 14 141 -20z m-1098 -44 c0 -82 3 -78 -67 -90 l-38
-6 0 61 c0 57 1 60 24 60 14 0 38 11 53 25 15 13 28 25 28 25 0 0 0 -34 0 -75z
m1294 56 c15 -10 24 -118 10 -127 -5 -3 -9 -64 -9 -137 0 -92 -3 -128 -11
-120 -6 6 -9 54 -7 126 2 95 0 117 -11 119 -11 2 -15 22 -17 76 -2 62 0 72 14
72 9 0 23 -4 31 -9z m-459 -66 l0 -65 -30 0 c-30 0 -30 0 -30 59 0 60 5 69 43
70 14 1 17 -8 17 -64z m-412 35 c10 -17 9 -22 -13 -36 -39 -26 -29 -33 25 -19
l50 13 0 -33 c0 -32 -1 -33 -60 -44 l-61 -12 7 -49 c6 -42 4 -49 -15 -59 -13
-7 -21 -21 -21 -36 0 -16 -6 -25 -15 -25 -13 0 -15 17 -13 113 3 106 4 112 24
115 14 2 30 19 45 48 13 24 26 44 29 44 3 0 11 -9 18 -20z m295 -42 c14 -16
17 -40 17 -127 0 -126 -10 -151 -68 -177 -2 -1 20 -43 47 -93 28 -50 51 -93
51 -95 0 -2 -15 -6 -34 -8 -33 -4 -34 -3 -80 89 -25 51 -50 93 -56 93 -6 0
-10 -41 -10 -104 0 -99 -1 -104 -22 -110 -50 -13 -48 -22 -48 263 l0 270 58
11 c31 6 62 13 67 15 20 8 60 -6 78 -27z m-616 -38 c5 0 18 -9 27 -19 17 -18
16 -24 -4 -122 -20 -98 -26 -118 -33 -108 -1 2 -17 50 -35 106 -30 91 -32 107
-22 144 l11 41 23 -21 c12 -12 27 -21 33 -21z m153 -280 c0 -259 -1 -270 -19
-270 -11 0 -25 -2 -33 -5 -11 -4 -13 28 -11 172 l2 178 -25 -134 c-13 -74 -25
-136 -27 -137 -1 -1 -23 -5 -48 -9 l-46 -7 -7 39 c-4 21 -16 76 -26 123 l-19
85 2 -175 2 -175 -25 -3 c-39 -6 -49 -22 -13 -22 39 0 54 19 60 73 l5 43 52
-2 c28 -1 57 3 63 8 9 7 14 6 18 -3 24 -69 24 -69 58 -69 18 0 38 5 44 11 7 7
49 13 100 13 63 1 95 6 113 18 14 9 42 16 63 15 48 -1 64 16 73 78 7 58 11 65
20 39 4 -10 18 -34 32 -52 24 -33 25 -34 83 -27 33 4 59 3 59 -2 0 -12 -81
-73 -105 -78 -50 -12 -385 -68 -432 -72 -42 -4 -57 -1 -81 16 -43 30 -66 26
-104 -18 -40 -47 -83 -59 -127 -37 -42 22 -53 20 -102 -19 -52 -41 -85 -44
-160 -15 l-51 20 -32 -35 c-32 -35 -58 -43 -85 -26 -10 6 -26 2 -50 -15 -42
-28 -68 -30 -99 -8 -18 13 -21 19 -11 30 6 8 21 14 34 14 25 0 50 38 51 79 0
14 1 40 3 56 l1 30 16 -35 c43 -97 65 -116 104 -97 16 8 28 27 36 57 7 25 12
39 13 32 1 -7 7 -19 14 -26 72 -71 173 -62 243 22 14 18 23 22 28 13 21 -33
26 20 26 259 l0 258 30 7 c16 4 33 4 37 2 5 -3 26 -78 48 -166 22 -89 42 -161
45 -161 3 0 23 83 45 185 41 191 41 191 93 194 l22 1 0 -270z m568 208 c-4
-29 -38 -38 -38 -10 0 22 8 32 27 32 9 0 13 -8 11 -22z m-334 -19 c3 -17 6
-48 6 -69 l0 -37 -57 -7 c-65 -8 -86 3 -60 32 9 10 17 30 17 43 0 40 28 66 71
68 11 1 19 -10 23 -30z m-769 11 c3 -5 19 -10 36 -10 16 0 29 -6 30 -12 11
-149 8 -225 -9 -214 -4 2 -6 -48 -4 -111 3 -92 1 -114 -10 -111 -13 5 -15 27
-34 322 -3 53 -11 98 -20 110 -8 11 -14 24 -14 28 0 11 18 10 25 -2z m165
-227 c0 -197 -2 -233 -18 -262 -23 -47 -61 -72 -114 -78 -40 -5 -49 -2 -79 25
l-34 30 -3 236 c-2 189 0 236 10 236 7 0 23 3 36 6 l22 6 0 -224 c0 -161 3
-227 12 -236 17 -17 58 -15 80 5 16 15 18 36 18 244 l0 228 23 4 c12 2 28 5
35 6 9 1 12 -50 12 -226z m1800 198 c0 -10 -15 -30 -34 -45 -19 -14 -36 -36
-38 -48 -4 -28 -30 -35 -51 -14 -15 15 -16 80 -2 95 5 5 82 25 118 30 4 0 7
-7 7 -18z m-862 -333 c-7 -4 -21 -8 -30 -8 -16 0 -18 14 -18 159 l0 160 28 3
27 3 3 -154 c2 -117 -1 -156 -10 -163z m-1238 43 l0 -269 -24 -4 c-23 -5 -28
3 -76 126 -28 72 -55 140 -59 151 -5 11 -6 -53 -3 -142 4 -135 2 -163 -9 -163
-8 0 -24 -3 -36 -6 l-23 -6 0 270 0 270 31 4 c24 4 32 1 38 -16 4 -12 25 -72
47 -133 21 -62 41 -113 44 -113 3 0 5 64 5 142 l0 142 25 7 c14 4 28 7 33 8 4
1 7 -120 7 -268z m900 145 c0 -33 -2 -35 -42 -41 -82 -12 -78 -8 -76 -91 l2
-75 36 6 c19 3 45 9 58 12 20 5 22 1 22 -30 l0 -34 -77 -13 c-42 -6 -83 -14
-90 -17 -10 -4 -13 24 -13 141 0 138 1 146 19 146 11 0 22 4 25 9 3 5 14 7 24
5 9 -3 35 -1 57 5 22 5 43 9 48 10 4 1 7 -14 7 -33z m263 -27 c3 -12 2 -30 -2
-41 -7 -19 -8 -18 -20 10 -12 30 -9 52 8 52 5 0 11 -9 14 -21z m-253 -83 c0
-42 -16 -56 -61 -56 -36 0 -36 1 -36 38 1 38 15 56 52 64 29 6 45 -10 45 -46z
m1084 18 c123 20 144 16 132 -22 -9 -28 -211 -61 -262 -43 -31 11 -39 10 -90
-20 -63 -36 -109 -40 -166 -16 -27 12 -38 22 -38 38 0 19 3 21 38 13 90 -19
171 5 208 62 l16 23 23 -26 22 -27 117 18z m-677 -74 c19 -15 41 -20 87 -20
33 0 67 -4 75 -9 19 -12 7 -39 -24 -53 -22 -10 -34 -7 -89 20 -36 18 -71 32
-80 32 -16 0 -22 30 -9 43 9 10 12 9 40 -13z"/>
<path d="M2405 2513 c-30 -4 -136 -19 -356 -52 -124 -18 -176 -40 -196 -82
-14 -29 -15 -61 -14 -381 l1 -246 26 -32 c26 -30 29 -31 100 -29 40 2 76 0 79
-3 4 -4 9 -44 12 -90 9 -139 27 -141 146 -17 71 74 88 99 93 131 8 49 27 61
124 83 151 33 151 35 150 326 -1 232 -4 279 -21 279 -5 0 -9 -114 -9 -258 0
-318 10 -297 -149 -322 -86 -14 -121 -40 -121 -89 0 -24 -18 -51 -92 -131 -50
-55 -92 -100 -93 -100 -1 0 0 42 3 93 4 81 2 95 -16 117 -19 24 -21 24 -83 13
-56 -10 -67 -9 -89 6 l-25 18 -3 310 -2 309 23 22 c19 18 65 28 297 63 151 23
277 44 280 46 5 4 -22 24 -30 21 -3 0 -18 -3 -35 -5z"/>
<path d="M2195 2281 c-94 -15 -176 -31 -183 -35 -16 -10 -15 -61 1 -74 8 -7
66 -1 190 18 99 16 185 31 193 34 29 11 10 88 -20 85 -6 -1 -88 -14 -181 -28z"/>
<path d="M2191 2131 c-138 -22 -176 -31 -187 -46 -17 -23 -17 -27 0 -51 14
-19 17 -19 203 8 143 21 191 32 201 45 19 27 -3 75 -33 72 -5 -1 -88 -14 -184
-28z"/>
<path d="M2088 1966 c-77 -13 -91 -22 -86 -62 3 -28 4 -29 63 -28 80 1 112 10
125 35 9 16 8 26 -5 45 -8 13 -19 23 -23 23 -4 -1 -37 -7 -74 -13z"/>
<path d="M1548 2413 c-16 -4 -18 -19 -18 -125 l0 -120 33 7 c17 4 42 13 55 21
22 14 23 20 20 117 l-3 102 -35 2 c-19 0 -43 -1 -52 -4z m62 -108 c0 -62 -3
-76 -19 -84 -10 -6 -21 -7 -25 -4 -8 8 -8 148 1 156 3 4 15 7 25 7 16 0 18 -9
18 -75z"/>
<path d="M852 2112 c-7 -42 -15 -87 -18 -99 -6 -20 -4 -21 31 -13 20 5 38 10
40 12 4 4 -29 165 -36 172 -2 3 -10 -30 -17 -72z"/>
<path d="M803 1623 c-10 -3 -13 -38 -13 -125 l0 -120 33 7 c71 15 77 25 77
128 0 59 -4 97 -12 105 -12 12 -62 15 -85 5z m51 -29 c13 -5 16 -22 16 -78 0
-71 -10 -96 -37 -96 -10 0 -13 22 -13 83 0 94 3 103 34 91z"/>
<path d="M1941 1193 c-21 -17 -22 -24 -19 -213 l3 -195 45 -3 c36 -3 43 -1 33
9 -7 7 -13 34 -13 60 0 52 -14 73 -25 38 -11 -34 -23 -2 -18 44 4 25 10 37 22
38 10 0 11 2 4 6 -9 3 -13 31 -13 89 0 61 3 84 13 84 8 0 13 -26 15 -88 1 -48
4 -96 6 -107 2 -11 -2 -23 -8 -27 -8 -6 -8 -8 1 -8 6 0 24 -22 39 -50 15 -27
31 -50 36 -50 15 0 8 39 -12 72 -17 28 -20 51 -20 160 0 102 -3 130 -16 142
-20 21 -47 20 -73 -1z"/>
<path d="M1573 1123 c-9 -3 -13 -35 -13 -109 l0 -104 28 6 c45 11 56 29 60
103 6 96 -17 128 -75 104z m39 -96 c0 -55 -2 -67 -12 -67 -6 0 -10 29 -10 68
1 52 3 63 11 49 6 -10 11 -33 11 -50z"/>
<path d="M565 1350 c-66 -39 -233 -92 -377 -120 -65 -13 -116 -25 -114 -27 2
-3 80 5 172 17 120 16 199 21 277 18 108 -5 110 -4 87 14 -12 10 -35 18 -51
18 -44 0 -43 16 2 42 39 21 83 69 63 67 -5 0 -31 -13 -59 -29z"/>
</g>
</svg>
